<svg xmlns="http://www.w3.org/2000/svg" width="920" height="620" viewBox="0 0 920 620" role="img" aria-labelledby="title desc">
<title id="title">kathigg coding streak dashboard</title>
<desc id="desc">GitHub profile dashboard showing coding streak, contribution graph, comments, tests, and language pie chart.</desc>

<defs>
  <linearGradient id="bg" x1="0" x2="1" y1="0" y2="1">
    <stop offset="0%" stop-color="#10231f"/>
    <stop offset="44%" stop-color="#1b4d3e"/>
    <stop offset="100%" stop-color="#f59e0b"/>
  </linearGradient>
  <linearGradient id="flameFill" x1="0" x2="1" y1="0" y2="1">
    <stop offset="0%" stop-color="#ffef74"/>
    <stop offset="52%" stop-color="#ff9f1c"/>
    <stop offset="100%" stop-color="#e63900"/>
  </linearGradient>
  <pattern id="grain" width="18" height="18" patternUnits="userSpaceOnUse">
    <path d="M0 18 L18 0" stroke="#d6a13a" stroke-width="1" opacity="0.25"/>
  </pattern>
  <filter id="softShadow" x="-20%" y="-20%" width="140%" height="140%">
    <feDropShadow dx="0" dy="10" stdDeviation="12" flood-color="#10231f" flood-opacity="0.18"/>
  </filter>
</defs>

<rect width="920" height="620" rx="34" fill="url(#bg)"/>
<rect x="18" y="18" width="884" height="584" rx="28" fill="#fff8ec" opacity="0.92"/>
<rect x="18" y="18" width="884" height="584" rx="28" fill="url(#grain)" opacity="0.32"/>

<g transform="translate(52 52)">
  <text x="0" y="0" fill="#17352e" font-family="Georgia, 'Trebuchet MS', serif" font-size="34" font-weight="800">
    Kathleen Higgins's code streak
  </text>
  <text x="2" y="34" fill="#53645f" font-family="'Trebuchet MS', Verdana, sans-serif" font-size="14">
    Contribution rhythm, repository scan stats, and language mix for @kathigg
  </text>
</g>


<g filter="url(#softShadow)">
  <rect x="52" y="112" width="268" height="150" rx="24" fill="#17352e"/>
  <path d="M52 220 C110 186 168 260 320 196 L320 262 L52 262 Z" fill="#235f4e" opacity="0.72"/>
  
<g transform="translate(78 136) scale(1.1389)">
  <path fill="#FCEA2B" d="M51.3344,58.3018c7.563-9.7894,4.0318-21.8721,2.4461-25.5688c-0.1799-0.4193-0.9302-0.5566-0.982-0.1006c-0.1225,1.0797-0.4061,2.3611-2.0041,1.9736c-0.8203-0.1989-1.3479-0.556-1.3479-1.8802c0.511-15.0494-10.5109-25.2968-14.3463-28.5356c-0.5103-0.4309-1.2668,0.0293-1.1587,0.7039c2.456,15.3348-1.6079,14.2846-3.0986,13.8192c-0.2593-0.081-0.5408,0.0546-0.6603,0.3074c-4.5882,9.7014-3.4112,14.2653-3.519,17.4455c0,0.2569,0,0.687,0,0.9581c0,1.746-1.4154,2.5822-2.5607,2.0714c-2.0545-0.9163-2.4047-6.3729-2.4134-7.8235c-0.0041-0.6828-0.8094-0.8791-1.202-0.332c-8.8048,12.267-2.3251,23.1974-0.0822,26.3171c0.6459,0.8984,0.9025,2.0748,0.5354,3.1298c-0.0412,0.1183-0.0896,0.2352-0.1465,0.349c-0.3988,0.7981,0.6707,1.4,0.6707,1.4c1.3155,1.2339,5.4651,5.1806,14.2817,5.1805c7.1344-0.0001,11.9478-3.0595,13.8297-4.7247c0.8829-0.7812,1.2761-0.8594,1.2732-1.6827C50.8459,60.3243,50.8238,58.8066,51.3344,58.3018"/>
  <path fill="#F1B31C" d="M36.2938,32.5579c-0.2946,1.4609-1.3196,4.0019-4.2072,8.3499c-0.0592,0.1064-0.1172,0.2104-0.1764,0.3168c-0.3088,0.6893-1.3555,3.3414-1.0617,7.0514c-0.0002,0.0018-0.573,4.337-2.977,3.9757c-0.5095-0.0766-0.9214-0.2506-1.2541-0.4772c-0.6105-0.4159-1.4234,0.1082-1.3489,0.8525c0.3195,3.1924,1.6034,8.0822,6.1526,11.6721c0,0,1.2832,1.0598,1.4415,1.9748c0.0052,0.0303,0.029,0.0506,0.0591,0.0506l5.2741,0c0.1832,0,0.2083-0.024,0.2135-0.0594c0.0356-0.2402,0.3643-1.2504,3.2024-3.7732c1.9966-1.7748,3.1652-3.898,3.7424-5.3482c0.2048-0.5145-0.101-1.1173-0.6389-1.2068c-0.3438-0.0572-0.7127-0.3603-1.0133-1.1841c-0.0063-0.0235-0.2167-0.8383,0.6013-2.5595c0.3805-0.8006,0.4242-1.6645,0.36-2.3655c-0.0579-0.6322-0.723-0.998-1.2816-0.7156c-0.7839,0.3965-1.8694,0.5304-2.5993-1.0753c0,0-0.6584-1.5662-0.0859-5.4515c0.437-2.9656-1.0106-7.8615-2.8279-10.3747C37.4192,31.5887,36.4459,31.8032,36.2938,32.5579z"/>
  <path fill="none" stroke="#101820" stroke-linecap="round" stroke-linejoin="round" stroke-width="2" d="M21.6298,61.5562c3.479,3.6108,8.6702,5.4754,13.9925,5.4754c5.0546,0,10.7077-1.9624,14.2409-5.4677"/>
  <path fill="none" stroke="#101820" stroke-linecap="round" stroke-linejoin="round" stroke-width="2" d="M21.5108,57.4557c0,0-10.5321-11.2011-0.4546-25.9791c0,0,0.1969,4.0589,1.2551,6.5816c0.4834,1.0362,1.2122,1.9569,2.3487,1.9569c1.3355,0,2.4181-0.8972,2.4181-2.5708c0-0.2599,0-0.6721,0-0.9184c0.105-3.0996-0.5251-7.6659,3.5708-17.19c0,0,7.0365,3.7835,3.9909-14.6122c0,0,14.8798,10.4421,14.2762,28.217c0,1.2693,0.9678,2.2983,2.1617,2.2983s2.1617-1.029,2.1617-2.2983c0.075,0.1341,6.3219,13.078-2.514,24.515"/>
</g>

  <text x="168" y="168" fill="#fff8ec" font-family="Georgia, 'Trebuchet MS', serif" font-size="48" font-weight="900">
    13
  </text>
  <text x="170" y="196" fill="#ffd166" font-family="'Trebuchet MS', Verdana, sans-serif" font-size="17" font-weight="700">
    days in a row
  </text>
  <text x="170" y="222" fill="#cfe6dc" font-family="'Trebuchet MS', Verdana, sans-serif" font-size="13">
    Longest streak: 13 days
  </text>
</g>


<g filter="url(#softShadow)">
  <rect x="356" y="120" width="150" height="132" rx="22" fill="#fffdf7"/>
  <circle cx="382" cy="150" r="10" fill="#0f766e"/>
  <text x="402" y="155" fill="#53645f" font-family="'Trebuchet MS', Verdana, sans-serif" font-size="13" font-weight="700">
    Active days
  </text>
  <text x="380" y="202" fill="#17352e" font-family="Georgia, 'Trebuchet MS', serif" font-size="32" font-weight="900">
    177
  </text>
  <text x="380" y="228" fill="#6c7a76" font-family="'Trebuchet MS', Verdana, sans-serif" font-size="12">
    days with contributions
  </text>
</g>


<g filter="url(#softShadow)">
  <rect x="536" y="120" width="150" height="132" rx="22" fill="#fffdf7"/>
  <circle cx="562" cy="150" r="10" fill="#b45309"/>
  <text x="582" y="155" fill="#53645f" font-family="'Trebuchet MS', Verdana, sans-serif" font-size="13" font-weight="700">
    Comments
  </text>
  <text x="560" y="202" fill="#17352e" font-family="Georgia, 'Trebuchet MS', serif" font-size="32" font-weight="900">
    3,553
  </text>
  <text x="560" y="228" fill="#6c7a76" font-family="'Trebuchet MS', Verdana, sans-serif" font-size="12">
    comment lines scanned
  </text>
</g>


<g filter="url(#softShadow)">
  <rect x="716" y="120" width="150" height="132" rx="22" fill="#fffdf7"/>
  <circle cx="742" cy="150" r="10" fill="#2563eb"/>
  <text x="762" y="155" fill="#53645f" font-family="'Trebuchet MS', Verdana, sans-serif" font-size="13" font-weight="700">
    Tests
  </text>
  <text x="740" y="202" fill="#17352e" font-family="Georgia, 'Trebuchet MS', serif" font-size="32" font-weight="900">
    80
  </text>
  <text x="740" y="228" fill="#6c7a76" font-family="'Trebuchet MS', Verdana, sans-serif" font-size="12">
    16 files detected
  </text>
</g>


<g filter="url(#softShadow)">
  <rect x="52" y="306" width="520" height="190" rx="24" fill="#fffdf7"/>
  <text x="80" y="336" fill="#17352e" font-family="Georgia, 'Trebuchet MS', serif" font-size="22" font-weight="800">
    Coding over time
  </text>
  <text x="544" y="336" text-anchor="end" fill="#6c7a76" font-family="'Trebuchet MS', Verdana, sans-serif" font-size="12">
    1,099 contributions / 365 days
  </text>
  <line x1="80" y1="448" x2="542" y2="448" stroke="#d8ded8" stroke-width="1"/>
  <line x1="80" y1="356" x2="80" y2="448" stroke="#d8ded8" stroke-width="1"/>
  <path d="M 80,448 L 80.0,399.6 L 122.0,356.0 L 164.0,438.8 L 206.0,405.7 L 248.0,417.0 L 290.0,401.3 L 332.0,423.6 L 374.0,413.1 L 416.0,402.7 L 458.0,428.8 L 500.0,414.0 L 542.0,397.0 L 542,448 Z" fill="#f59e0b" opacity="0.22"/>
  <polyline points="80.0,399.6 122.0,356.0 164.0,438.8 206.0,405.7 248.0,417.0 290.0,401.3 332.0,423.6 374.0,413.1 416.0,402.7 458.0,428.8 500.0,414.0 542.0,397.0" fill="none" stroke="#17352e" stroke-width="4" stroke-linecap="round" stroke-linejoin="round"/>
  <circle cx="80.0" cy="399.6" r="4.5" fill="#f59e0b" stroke="#17352e" stroke-width="2"/>
<circle cx="122.0" cy="356.0" r="4.5" fill="#f59e0b" stroke="#17352e" stroke-width="2"/>
<circle cx="164.0" cy="438.8" r="4.5" fill="#f59e0b" stroke="#17352e" stroke-width="2"/>
<circle cx="206.0" cy="405.7" r="4.5" fill="#f59e0b" stroke="#17352e" stroke-width="2"/>
<circle cx="248.0" cy="417.0" r="4.5" fill="#f59e0b" stroke="#17352e" stroke-width="2"/>
<circle cx="290.0" cy="401.3" r="4.5" fill="#f59e0b" stroke="#17352e" stroke-width="2"/>
<circle cx="332.0" cy="423.6" r="4.5" fill="#f59e0b" stroke="#17352e" stroke-width="2"/>
<circle cx="374.0" cy="413.1" r="4.5" fill="#f59e0b" stroke="#17352e" stroke-width="2"/>
<circle cx="416.0" cy="402.7" r="4.5" fill="#f59e0b" stroke="#17352e" stroke-width="2"/>
<circle cx="458.0" cy="428.8" r="4.5" fill="#f59e0b" stroke="#17352e" stroke-width="2"/>
<circle cx="500.0" cy="414.0" r="4.5" fill="#f59e0b" stroke="#17352e" stroke-width="2"/>
<circle cx="542.0" cy="397.0" r="4.5" fill="#f59e0b" stroke="#17352e" stroke-width="2"/>
  <text x="80.0" y="476" text-anchor="middle" fill="#75837f" font-family="'Trebuchet MS', Verdana, sans-serif" font-size="10">Jun</text>
<text x="122.0" y="476" text-anchor="middle" fill="#75837f" font-family="'Trebuchet MS', Verdana, sans-serif" font-size="10">Jul</text>
<text x="164.0" y="476" text-anchor="middle" fill="#75837f" font-family="'Trebuchet MS', Verdana, sans-serif" font-size="10">Aug</text>
<text x="206.0" y="476" text-anchor="middle" fill="#75837f" font-family="'Trebuchet MS', Verdana, sans-serif" font-size="10">Sep</text>
<text x="248.0" y="476" text-anchor="middle" fill="#75837f" font-family="'Trebuchet MS', Verdana, sans-serif" font-size="10">Oct</text>
<text x="290.0" y="476" text-anchor="middle" fill="#75837f" font-family="'Trebuchet MS', Verdana, sans-serif" font-size="10">Nov</text>
<text x="332.0" y="476" text-anchor="middle" fill="#75837f" font-family="'Trebuchet MS', Verdana, sans-serif" font-size="10">Dec</text>
<text x="374.0" y="476" text-anchor="middle" fill="#75837f" font-family="'Trebuchet MS', Verdana, sans-serif" font-size="10">Jan</text>
<text x="416.0" y="476" text-anchor="middle" fill="#75837f" font-family="'Trebuchet MS', Verdana, sans-serif" font-size="10">Feb</text>
<text x="458.0" y="476" text-anchor="middle" fill="#75837f" font-family="'Trebuchet MS', Verdana, sans-serif" font-size="10">Mar</text>
<text x="500.0" y="476" text-anchor="middle" fill="#75837f" font-family="'Trebuchet MS', Verdana, sans-serif" font-size="10">Apr</text>
<text x="542.0" y="476" text-anchor="middle" fill="#75837f" font-family="'Trebuchet MS', Verdana, sans-serif" font-size="10">May</text>
</g>


<g>
  <text x="52" y="502" fill="#17352e" font-family="'Trebuchet MS', Verdana, sans-serif" font-size="13" font-weight="800">
    Last 49 days
  </text>
  <rect x="52" y="520" width="7" height="28" rx="3.5" fill="#e9eee8"><title>2026-03-27: 0</title></rect><rect x="62" y="520" width="7" height="28" rx="3.5" fill="#e9eee8"><title>2026-03-28: 0</title></rect><rect x="72" y="520" width="7" height="28" rx="3.5" fill="#e9eee8"><title>2026-03-29: 0</title></rect><rect x="82" y="520" width="7" height="28" rx="3.5" fill="#e9eee8"><title>2026-03-30: 0</title></rect><rect x="92" y="520" width="7" height="28" rx="3.5" fill="#b7e4a8"><title>2026-03-31: 5</title></rect><rect x="102" y="520" width="7" height="28" rx="3.5" fill="#e9eee8"><title>2026-04-01: 0</title></rect><rect x="112" y="520" width="7" height="28" rx="3.5" fill="#b7e4a8"><title>2026-04-02: 4</title></rect><rect x="122" y="520" width="7" height="28" rx="3.5" fill="#b7e4a8"><title>2026-04-03: 1</title></rect><rect x="132" y="520" width="7" height="28" rx="3.5" fill="#b7e4a8"><title>2026-04-04: 1</title></rect><rect x="142" y="520" width="7" height="28" rx="3.5" fill="#b7e4a8"><title>2026-04-05: 1</title></rect><rect x="152" y="520" width="7" height="28" rx="3.5" fill="#b7e4a8"><title>2026-04-06: 3</title></rect><rect x="162" y="520" width="7" height="28" rx="3.5" fill="#b7e4a8"><title>2026-04-07: 1</title></rect><rect x="172" y="520" width="7" height="28" rx="3.5" fill="#b7e4a8"><title>2026-04-08: 3</title></rect><rect x="182" y="520" width="7" height="28" rx="3.5" fill="#b7e4a8"><title>2026-04-09: 6</title></rect><rect x="192" y="520" width="7" height="28" rx="3.5" fill="#b7e4a8"><title>2026-04-10: 2</title></rect><rect x="202" y="520" width="7" height="28" rx="3.5" fill="#e9eee8"><title>2026-04-11: 0</title></rect><rect x="212" y="520" width="7" height="28" rx="3.5" fill="#e9eee8"><title>2026-04-12: 0</title></rect><rect x="222" y="520" width="7" height="28" rx="3.5" fill="#e9eee8"><title>2026-04-13: 0</title></rect><rect x="232" y="520" width="7" height="28" rx="3.5" fill="#b7e4a8"><title>2026-04-14: 1</title></rect><rect x="242" y="520" width="7" height="28" rx="3.5" fill="#b7e4a8"><title>2026-04-15: 1</title></rect><rect x="252" y="520" width="7" height="28" rx="3.5" fill="#b7e4a8"><title>2026-04-16: 2</title></rect><rect x="262" y="520" width="7" height="28" rx="3.5" fill="#b7e4a8"><title>2026-04-17: 5</title></rect><rect x="272" y="520" width="7" height="28" rx="3.5" fill="#6bbf59"><title>2026-04-18: 9</title></rect><rect x="282" y="520" width="7" height="28" rx="3.5" fill="#b7e4a8"><title>2026-04-19: 8</title></rect><rect x="292" y="520" width="7" height="28" rx="3.5" fill="#e9eee8"><title>2026-04-20: 0</title></rect><rect x="302" y="520" width="7" height="28" rx="3.5" fill="#b7e4a8"><title>2026-04-21: 1</title></rect><rect x="312" y="520" width="7" height="28" rx="3.5" fill="#b7e4a8"><title>2026-04-22: 2</title></rect><rect x="322" y="520" width="7" height="28" rx="3.5" fill="#e9eee8"><title>2026-04-23: 0</title></rect><rect x="332" y="520" width="7" height="28" rx="3.5" fill="#e9eee8"><title>2026-04-24: 0</title></rect><rect x="342" y="520" width="7" height="28" rx="3.5" fill="#e9eee8"><title>2026-04-25: 0</title></rect><rect x="352" y="520" width="7" height="28" rx="3.5" fill="#b7e4a8"><title>2026-04-26: 1</title></rect><rect x="362" y="520" width="7" height="28" rx="3.5" fill="#198754"><title>2026-04-27: 17</title></rect><rect x="372" y="520" width="7" height="28" rx="3.5" fill="#b7e4a8"><title>2026-04-28: 3</title></rect><rect x="382" y="520" width="7" height="28" rx="3.5" fill="#b7e4a8"><title>2026-04-29: 1</title></rect><rect x="392" y="520" width="7" height="28" rx="3.5" fill="#b7e4a8"><title>2026-04-30: 5</title></rect><rect x="402" y="520" width="7" height="28" rx="3.5" fill="#e9eee8"><title>2026-05-01: 0</title></rect><rect x="412" y="520" width="7" height="28" rx="3.5" fill="#b7e4a8"><title>2026-05-02: 2</title></rect><rect x="422" y="520" width="7" height="28" rx="3.5" fill="#b7e4a8"><title>2026-05-03: 6</title></rect><rect x="432" y="520" width="7" height="28" rx="3.5" fill="#b7e4a8"><title>2026-05-04: 7</title></rect><rect x="442" y="520" width="7" height="28" rx="3.5" fill="#0f5132"><title>2026-05-05: 34</title></rect><rect x="452" y="520" width="7" height="28" rx="3.5" fill="#b7e4a8"><title>2026-05-06: 3</title></rect><rect x="462" y="520" width="7" height="28" rx="3.5" fill="#b7e4a8"><title>2026-05-07: 6</title></rect><rect x="472" y="520" width="7" height="28" rx="3.5" fill="#198754"><title>2026-05-08: 23</title></rect><rect x="482" y="520" width="7" height="28" rx="3.5" fill="#6bbf59"><title>2026-05-09: 9</title></rect><rect x="492" y="520" width="7" height="28" rx="3.5" fill="#b7e4a8"><title>2026-05-10: 6</title></rect><rect x="502" y="520" width="7" height="28" rx="3.5" fill="#b7e4a8"><title>2026-05-11: 7</title></rect><rect x="512" y="520" width="7" height="28" rx="3.5" fill="#b7e4a8"><title>2026-05-12: 4</title></rect><rect x="522" y="520" width="7" height="28" rx="3.5" fill="#b7e4a8"><title>2026-05-13: 1</title></rect><rect x="532" y="520" width="7" height="28" rx="3.5" fill="#6bbf59"><title>2026-05-14: 9</title></rect>
</g>


<g filter="url(#softShadow)">
  <rect x="612" y="306" width="256" height="242" rx="24" fill="#fffdf7"/>
  <text x="636" y="338" fill="#17352e" font-family="Georgia, 'Trebuchet MS', serif" font-size="22" font-weight="800">
    Language mix
  </text>
  <text x="636" y="360" fill="#6c7a76" font-family="'Trebuchet MS', Verdana, sans-serif" font-size="12">
    Public owned repositories
  </text>
  <path d="M 712 402 L 661.68 350.50 A 72 72 0 1 0 712.00 330.00 Z" fill="#3572A5"><title>Python</title></path>
<path d="M 712 402 L 680.88 337.07 A 72 72 0 0 0 661.68 350.50 Z" fill="#3178c6"><title>TypeScript</title></path>
<path d="M 712 402 L 696.36 331.72 A 72 72 0 0 0 680.88 337.07 Z" fill="#DA5B0B"><title>Jupyter Notebook</title></path>
<path d="M 712 402 L 699.99 331.01 A 72 72 0 0 0 696.36 331.72 Z" fill="#f34b7d"><title>C++</title></path>
<path d="M 712 402 L 703.41 330.51 A 72 72 0 0 0 699.99 331.01 Z" fill="#e16737"><title>MATLAB</title></path>
<path d="M 712 402 L 706.78 330.19 A 72 72 0 0 0 703.41 330.51 Z" fill="#fedf5b"><title>Cython</title></path>
<path d="M 712 402 L 712.00 330.00 A 72 72 0 0 0 706.78 330.19 Z" fill="#8d99ae"><title>Other</title></path>
  
<g>
  <rect x="796" y="340" width="10" height="10" rx="3" fill="#3572A5"/>
  <text x="812" y="350" fill="#17352e" font-family="'Trebuchet MS', Verdana, sans-serif" font-size="11" font-weight="700">Python</text>
  <text x="812" y="363" fill="#6c7a76" font-family="'Trebuchet MS', Verdana, sans-serif" font-size="10">87.7%</text>
</g>


<g>
  <rect x="796" y="364" width="10" height="10" rx="3" fill="#3178c6"/>
  <text x="812" y="374" fill="#17352e" font-family="'Trebuchet MS', Verdana, sans-serif" font-size="11" font-weight="700">TypeScript</text>
  <text x="812" y="387" fill="#6c7a76" font-family="'Trebuchet MS', Verdana, sans-serif" font-size="10">5.2%</text>
</g>


<g>
  <rect x="796" y="388" width="10" height="10" rx="3" fill="#DA5B0B"/>
  <text x="812" y="398" fill="#17352e" font-family="'Trebuchet MS', Verdana, sans-serif" font-size="11" font-weight="700">Jupyter Notebo...</text>
  <text x="812" y="411" fill="#6c7a76" font-family="'Trebuchet MS', Verdana, sans-serif" font-size="10">3.6%</text>
</g>


<g>
  <rect x="796" y="412" width="10" height="10" rx="3" fill="#f34b7d"/>
  <text x="812" y="422" fill="#17352e" font-family="'Trebuchet MS', Verdana, sans-serif" font-size="11" font-weight="700">C++</text>
  <text x="812" y="435" fill="#6c7a76" font-family="'Trebuchet MS', Verdana, sans-serif" font-size="10">0.8%</text>
</g>


<g>
  <rect x="796" y="436" width="10" height="10" rx="3" fill="#e16737"/>
  <text x="812" y="446" fill="#17352e" font-family="'Trebuchet MS', Verdana, sans-serif" font-size="11" font-weight="700">MATLAB</text>
  <text x="812" y="459" fill="#6c7a76" font-family="'Trebuchet MS', Verdana, sans-serif" font-size="10">0.8%</text>
</g>


<g>
  <rect x="796" y="460" width="10" height="10" rx="3" fill="#fedf5b"/>
  <text x="812" y="470" fill="#17352e" font-family="'Trebuchet MS', Verdana, sans-serif" font-size="11" font-weight="700">Cython</text>
  <text x="812" y="483" fill="#6c7a76" font-family="'Trebuchet MS', Verdana, sans-serif" font-size="10">0.7%</text>
</g>

</g>


<g>
  <text x="612" y="574" fill="#53645f" font-family="'Trebuchet MS', Verdana, sans-serif" font-size="12">
    Source scan: 30 repos scanned • 491 files • 62,571 nonblank lines
  </text>
  <text x="52" y="574" fill="#53645f" font-family="'Trebuchet MS', Verdana, sans-serif" font-size="12">
    Fire graphic source: OpenMoji 1F525 • Generated 2026-05-14T18:48:58Z
  </text>
</g>

</svg>