<svg xmlns="http://www.w3.org/2000/svg" width="920" height="760" viewBox="0 0 920 760" role="img" aria-labelledby="title desc">
<title id="title">kathigg coding streak dashboard</title>
<desc id="desc">Coding streak dashboard.</desc>

<defs>
  <filter id="softShadow" x="-20%" y="-20%" width="140%" height="140%">
    <feDropShadow dx="0" dy="2" stdDeviation="6" flood-color="#1f2328" flood-opacity="0.04"/>
  </filter>
  <linearGradient id="chartWash" x1="0%" y1="0%" x2="0%" y2="100%">
    <stop offset="0%" stop-color="#2da44e" stop-opacity="0.18"/>
    <stop offset="100%" stop-color="#2da44e" stop-opacity="0.02"/>
  </linearGradient>
</defs>

<rect width="920" height="760" rx="24" fill="#ffffff"/>
<rect x="18" y="18" width="884" height="724" rx="16" fill="#ffffff" stroke="#d0d7de" stroke-width="1"/>

<g transform="translate(52 52)">
  <text x="0" y="0" fill="#24292f" font-family="-apple-system, BlinkMacSystemFont, 'Segoe UI', Helvetica, Arial, sans-serif" font-size="32" font-weight="600" letter-spacing="-0.4">
    Kathleen Higgins's code streak
  </text>
  <line x1="0" y1="42" x2="816" y2="42" stroke="#d8dee4" stroke-width="1"/>
</g>


<g filter="url(#softShadow)">
  <rect x="52" y="112" width="268" height="150" rx="12" fill="#ffffff" stroke="#d0d7de" stroke-width="1"/>
  <rect x="70" y="130" width="66" height="66" rx="10" fill="#f6f8fa" stroke="#d0d7de" stroke-width="1"/>

<g transform="translate(78 136) scale(0.7222)">
  <path fill="#FCEA2B" d="M51.3344,58.3018c7.563-9.7894,4.0318-21.8721,2.4461-25.5688c-0.1799-0.4193-0.9302-0.5566-0.982-0.1006c-0.1225,1.0797-0.4061,2.3611-2.0041,1.9736c-0.8203-0.1989-1.3479-0.556-1.3479-1.8802c0.511-15.0494-10.5109-25.2968-14.3463-28.5356c-0.5103-0.4309-1.2668,0.0293-1.1587,0.7039c2.456,15.3348-1.6079,14.2846-3.0986,13.8192c-0.2593-0.081-0.5408,0.0546-0.6603,0.3074c-4.5882,9.7014-3.4112,14.2653-3.519,17.4455c0,0.2569,0,0.687,0,0.9581c0,1.746-1.4154,2.5822-2.5607,2.0714c-2.0545-0.9163-2.4047-6.3729-2.4134-7.8235c-0.0041-0.6828-0.8094-0.8791-1.202-0.332c-8.8048,12.267-2.3251,23.1974-0.0822,26.3171c0.6459,0.8984,0.9025,2.0748,0.5354,3.1298c-0.0412,0.1183-0.0896,0.2352-0.1465,0.349c-0.3988,0.7981,0.6707,1.4,0.6707,1.4c1.3155,1.2339,5.4651,5.1806,14.2817,5.1805c7.1344-0.0001,11.9478-3.0595,13.8297-4.7247c0.8829-0.7812,1.2761-0.8594,1.2732-1.6827C50.8459,60.3243,50.8238,58.8066,51.3344,58.3018"/>
  <path fill="#F1B31C" d="M36.2938,32.5579c-0.2946,1.4609-1.3196,4.0019-4.2072,8.3499c-0.0592,0.1064-0.1172,0.2104-0.1764,0.3168c-0.3088,0.6893-1.3555,3.3414-1.0617,7.0514c-0.0002,0.0018-0.573,4.337-2.977,3.9757c-0.5095-0.0766-0.9214-0.2506-1.2541-0.4772c-0.6105-0.4159-1.4234,0.1082-1.3489,0.8525c0.3195,3.1924,1.6034,8.0822,6.1526,11.6721c0,0,1.2832,1.0598,1.4415,1.9748c0.0052,0.0303,0.029,0.0506,0.0591,0.0506l5.2741,0c0.1832,0,0.2083-0.024,0.2135-0.0594c0.0356-0.2402,0.3643-1.2504,3.2024-3.7732c1.9966-1.7748,3.1652-3.898,3.7424-5.3482c0.2048-0.5145-0.101-1.1173-0.6389-1.2068c-0.3438-0.0572-0.7127-0.3603-1.0133-1.1841c-0.0063-0.0235-0.2167-0.8383,0.6013-2.5595c0.3805-0.8006,0.4242-1.6645,0.36-2.3655c-0.0579-0.6322-0.723-0.998-1.2816-0.7156c-0.7839,0.3965-1.8694,0.5304-2.5993-1.0753c0,0-0.6584-1.5662-0.0859-5.4515c0.437-2.9656-1.0106-7.8615-2.8279-10.3747C37.4192,31.5887,36.4459,31.8032,36.2938,32.5579z"/>
  <path fill="none" stroke="#101820" stroke-linecap="round" stroke-linejoin="round" stroke-width="2" d="M21.6298,61.5562c3.479,3.6108,8.6702,5.4754,13.9925,5.4754c5.0546,0,10.7077-1.9624,14.2409-5.4677"/>
  <path fill="none" stroke="#101820" stroke-linecap="round" stroke-linejoin="round" stroke-width="2" d="M21.5108,57.4557c0,0-10.5321-11.2011-0.4546-25.9791c0,0,0.1969,4.0589,1.2551,6.5816c0.4834,1.0362,1.2122,1.9569,2.3487,1.9569c1.3355,0,2.4181-0.8972,2.4181-2.5708c0-0.2599,0-0.6721,0-0.9184c0.105-3.0996-0.5251-7.6659,3.5708-17.19c0,0,7.0365,3.7835,3.9909-14.6122c0,0,14.8798,10.4421,14.2762,28.217c0,1.2693,0.9678,2.2983,2.1617,2.2983s2.1617-1.029,2.1617-2.2983c0.075,0.1341,6.3219,13.078-2.514,24.515"/>
</g>

  <text x="168" y="136" fill="#57606a" font-family="-apple-system, BlinkMacSystemFont, 'Segoe UI', Helvetica, Arial, sans-serif" font-size="12" font-weight="600" letter-spacing="0.6">
    Current streak
  </text>
  <text x="168" y="210" fill="#24292f" font-family="ui-monospace, SFMono-Regular, 'SF Mono', Consolas, 'Liberation Mono', Menlo, monospace" font-size="56" font-weight="700">
    0
  </text>
  <line x1="70" y1="232" x2="302" y2="232" stroke="#2da44e" stroke-width="3" stroke-linecap="round"/>
</g>


<g filter="url(#softShadow)">
  <rect x="356" y="120" width="150" height="132" rx="12" fill="#ffffff" stroke="#d0d7de" stroke-width="1"/>
  <circle cx="482" cy="146" r="8" fill="#2da44e" opacity="0.14"/>
  <line x1="380" y1="146" x2="414" y2="146" stroke="#2da44e" stroke-width="3" stroke-linecap="round"/>
  <text x="380" y="168" fill="#57606a" font-family="-apple-system, BlinkMacSystemFont, 'Segoe UI', Helvetica, Arial, sans-serif" font-size="12" font-weight="600" letter-spacing="0.6">
    Active days
  </text>
  <text x="380" y="216" fill="#24292f" font-family="ui-monospace, SFMono-Regular, 'SF Mono', Consolas, 'Liberation Mono', Menlo, monospace" font-size="34" font-weight="700">
    183
  </text>
</g>


<g filter="url(#softShadow)">
  <rect x="536" y="120" width="150" height="132" rx="12" fill="#ffffff" stroke="#d0d7de" stroke-width="1"/>
  <circle cx="662" cy="146" r="8" fill="#0969da" opacity="0.14"/>
  <line x1="560" y1="146" x2="594" y2="146" stroke="#0969da" stroke-width="3" stroke-linecap="round"/>
  <text x="560" y="168" fill="#57606a" font-family="-apple-system, BlinkMacSystemFont, 'Segoe UI', Helvetica, Arial, sans-serif" font-size="12" font-weight="600" letter-spacing="0.6">
    Comments
  </text>
  <text x="560" y="216" fill="#24292f" font-family="ui-monospace, SFMono-Regular, 'SF Mono', Consolas, 'Liberation Mono', Menlo, monospace" font-size="34" font-weight="700">
    3,562
  </text>
</g>


<g filter="url(#softShadow)">
  <rect x="716" y="120" width="150" height="132" rx="12" fill="#ffffff" stroke="#d0d7de" stroke-width="1"/>
  <circle cx="842" cy="146" r="8" fill="#bf8700" opacity="0.14"/>
  <line x1="740" y1="146" x2="774" y2="146" stroke="#bf8700" stroke-width="3" stroke-linecap="round"/>
  <text x="740" y="168" fill="#57606a" font-family="-apple-system, BlinkMacSystemFont, 'Segoe UI', Helvetica, Arial, sans-serif" font-size="12" font-weight="600" letter-spacing="0.6">
    Tests
  </text>
  <text x="740" y="216" fill="#24292f" font-family="ui-monospace, SFMono-Regular, 'SF Mono', Consolas, 'Liberation Mono', Menlo, monospace" font-size="34" font-weight="700">
    13
  </text>
</g>


<g filter="url(#softShadow)">
  <rect x="52" y="282" width="816" height="130" rx="12" fill="#ffffff" stroke="#d0d7de" stroke-width="1"/>
  <text x="80" y="314" fill="#24292f" font-family="-apple-system, BlinkMacSystemFont, 'Segoe UI', Helvetica, Arial, sans-serif" font-size="20" font-weight="600" letter-spacing="-0.2">
    Streak awards
  </text>
  <rect x="592" y="300" width="248" height="8" rx="4" fill="#d8dee4"/>
  <rect x="592" y="300" width="0.0" height="8" rx="4" fill="#2da44e"/>

<g opacity="1">
  <title>First Spark</title>
  <path d="M106 316 L132 330 L132 360 L106 374 L80 360 L80 330 Z" fill="#ffffff" stroke="#40c463" stroke-width="3"/>
  <circle cx="106" cy="345" r="17" fill="#dafbe1"/>
  <text x="106" y="351" text-anchor="middle" fill="#24292f" font-family="ui-monospace, SFMono-Regular, 'SF Mono', Consolas, 'Liberation Mono', Menlo, monospace" font-size="14" font-weight="800">
    1d
  </text>
  <text x="106" y="398" text-anchor="middle" fill="#24292f" font-family="-apple-system, BlinkMacSystemFont, 'Segoe UI', Helvetica, Arial, sans-serif" font-size="10" font-weight="700">
    Spark
  </text>
</g>


<g opacity="1">
  <title>Kindling</title>
  <path d="M204 316 L230 330 L230 360 L204 374 L178 360 L178 330 Z" fill="#ffffff" stroke="#40c463" stroke-width="3"/>
  <circle cx="204" cy="345" r="17" fill="#dafbe1"/>
  <text x="204" y="351" text-anchor="middle" fill="#24292f" font-family="ui-monospace, SFMono-Regular, 'SF Mono', Consolas, 'Liberation Mono', Menlo, monospace" font-size="14" font-weight="800">
    3d
  </text>
  <text x="204" y="398" text-anchor="middle" fill="#24292f" font-family="-apple-system, BlinkMacSystemFont, 'Segoe UI', Helvetica, Arial, sans-serif" font-size="10" font-weight="700">
    Kindling
  </text>
</g>


<g opacity="1">
  <title>Hot Week</title>
  <path d="M302 316 L328 330 L328 360 L302 374 L276 360 L276 330 Z" fill="#ffffff" stroke="#40c463" stroke-width="3"/>
  <circle cx="302" cy="345" r="17" fill="#dafbe1"/>
  <text x="302" y="351" text-anchor="middle" fill="#24292f" font-family="ui-monospace, SFMono-Regular, 'SF Mono', Consolas, 'Liberation Mono', Menlo, monospace" font-size="14" font-weight="800">
    7d
  </text>
  <text x="302" y="398" text-anchor="middle" fill="#24292f" font-family="-apple-system, BlinkMacSystemFont, 'Segoe UI', Helvetica, Arial, sans-serif" font-size="10" font-weight="700">
    Hot
  </text>
</g>


<g opacity="1">
  <title>Bonfire</title>
  <path d="M400 316 L426 330 L426 360 L400 374 L374 360 L374 330 Z" fill="#ffffff" stroke="#40c463" stroke-width="3"/>
  <circle cx="400" cy="345" r="17" fill="#dafbe1"/>
  <text x="400" y="351" text-anchor="middle" fill="#24292f" font-family="ui-monospace, SFMono-Regular, 'SF Mono', Consolas, 'Liberation Mono', Menlo, monospace" font-size="14" font-weight="800">
    14d
  </text>
  <text x="400" y="398" text-anchor="middle" fill="#24292f" font-family="-apple-system, BlinkMacSystemFont, 'Segoe UI', Helvetica, Arial, sans-serif" font-size="10" font-weight="700">
    Bonfire
  </text>
</g>


<g opacity="0.62">
  <title>Forge</title>
  <path d="M498 316 L524 330 L524 360 L498 374 L472 360 L472 330 Z" fill="#ffffff" stroke="#d0d7de" stroke-width="3"/>
  <circle cx="498" cy="345" r="17" fill="#f6f8fa"/>
  <text x="498" y="351" text-anchor="middle" fill="#8c959f" font-family="ui-monospace, SFMono-Regular, 'SF Mono', Consolas, 'Liberation Mono', Menlo, monospace" font-size="14" font-weight="800">
    30d
  </text>
  <text x="498" y="398" text-anchor="middle" fill="#8c959f" font-family="-apple-system, BlinkMacSystemFont, 'Segoe UI', Helvetica, Arial, sans-serif" font-size="10" font-weight="700">
    Forge
  </text>
</g>


<g opacity="0.62">
  <title>Inferno</title>
  <path d="M596 316 L622 330 L622 360 L596 374 L570 360 L570 330 Z" fill="#ffffff" stroke="#d0d7de" stroke-width="3"/>
  <circle cx="596" cy="345" r="17" fill="#f6f8fa"/>
  <text x="596" y="351" text-anchor="middle" fill="#8c959f" font-family="ui-monospace, SFMono-Regular, 'SF Mono', Consolas, 'Liberation Mono', Menlo, monospace" font-size="14" font-weight="800">
    60d
  </text>
  <text x="596" y="398" text-anchor="middle" fill="#8c959f" font-family="-apple-system, BlinkMacSystemFont, 'Segoe UI', Helvetica, Arial, sans-serif" font-size="10" font-weight="700">
    Inferno
  </text>
</g>


<g opacity="0.62">
  <title>Century Flame</title>
  <path d="M694 316 L720 330 L720 360 L694 374 L668 360 L668 330 Z" fill="#ffffff" stroke="#d0d7de" stroke-width="3"/>
  <circle cx="694" cy="345" r="17" fill="#f6f8fa"/>
  <text x="694" y="351" text-anchor="middle" fill="#8c959f" font-family="ui-monospace, SFMono-Regular, 'SF Mono', Consolas, 'Liberation Mono', Menlo, monospace" font-size="14" font-weight="800">
    100d
  </text>
  <text x="694" y="398" text-anchor="middle" fill="#8c959f" font-family="-apple-system, BlinkMacSystemFont, 'Segoe UI', Helvetica, Arial, sans-serif" font-size="10" font-weight="700">
    Century
  </text>
</g>


<g opacity="0.62">
  <title>Phoenix Year</title>
  <path d="M792 316 L818 330 L818 360 L792 374 L766 360 L766 330 Z" fill="#ffffff" stroke="#d0d7de" stroke-width="3"/>
  <circle cx="792" cy="345" r="17" fill="#f6f8fa"/>
  <text x="792" y="351" text-anchor="middle" fill="#8c959f" font-family="ui-monospace, SFMono-Regular, 'SF Mono', Consolas, 'Liberation Mono', Menlo, monospace" font-size="14" font-weight="800">
    365d
  </text>
  <text x="792" y="398" text-anchor="middle" fill="#8c959f" font-family="-apple-system, BlinkMacSystemFont, 'Segoe UI', Helvetica, Arial, sans-serif" font-size="10" font-weight="700">
    Phoenix
  </text>
</g>

</g>


<g filter="url(#softShadow)">
  <rect x="52" y="430" width="816" height="190" rx="12" fill="#ffffff" stroke="#d0d7de" stroke-width="1"/>
  <text x="80" y="460" fill="#24292f" font-family="-apple-system, BlinkMacSystemFont, 'Segoe UI', Helvetica, Arial, sans-serif" font-size="20" font-weight="600" letter-spacing="-0.2">
    Coding over time
  </text>
  <line x1="80" y1="572" x2="838" y2="572" stroke="#d8dee4" stroke-width="1"/>
  <line x1="80" y1="480" x2="80" y2="572" stroke="#d8dee4" stroke-width="1"/>
  <path d="M 80,572 L 80.0,480.0 L 148.9,562.8 L 217.8,529.7 L 286.7,541.0 L 355.6,525.3 L 424.5,547.6 L 493.5,537.1 L 562.4,526.7 L 631.3,552.8 L 700.2,538.0 L 769.1,500.9 L 838.0,572.0 L 838,572 Z" fill="url(#chartWash)"/>
  <polyline points="80.0,480.0 148.9,562.8 217.8,529.7 286.7,541.0 355.6,525.3 424.5,547.6 493.5,537.1 562.4,526.7 631.3,552.8 700.2,538.0 769.1,500.9 838.0,572.0" fill="none" stroke="#2da44e" stroke-width="3" stroke-linecap="round" stroke-linejoin="round"/>
  <circle cx="80.0" cy="480.0" r="4" fill="#ffffff" stroke="#2da44e" stroke-width="2"/>
<circle cx="148.9" cy="562.8" r="4" fill="#ffffff" stroke="#2da44e" stroke-width="2"/>
<circle cx="217.8" cy="529.7" r="4" fill="#ffffff" stroke="#2da44e" stroke-width="2"/>
<circle cx="286.7" cy="541.0" r="4" fill="#ffffff" stroke="#2da44e" stroke-width="2"/>
<circle cx="355.6" cy="525.3" r="4" fill="#ffffff" stroke="#2da44e" stroke-width="2"/>
<circle cx="424.5" cy="547.6" r="4" fill="#ffffff" stroke="#2da44e" stroke-width="2"/>
<circle cx="493.5" cy="537.1" r="4" fill="#ffffff" stroke="#2da44e" stroke-width="2"/>
<circle cx="562.4" cy="526.7" r="4" fill="#ffffff" stroke="#2da44e" stroke-width="2"/>
<circle cx="631.3" cy="552.8" r="4" fill="#ffffff" stroke="#2da44e" stroke-width="2"/>
<circle cx="700.2" cy="538.0" r="4" fill="#ffffff" stroke="#2da44e" stroke-width="2"/>
<circle cx="769.1" cy="500.9" r="4" fill="#ffffff" stroke="#2da44e" stroke-width="2"/>
<circle cx="838.0" cy="572.0" r="4" fill="#ffffff" stroke="#2da44e" stroke-width="2"/>
  <text x="80.0" y="600" text-anchor="middle" fill="#8c959f" font-family="-apple-system, BlinkMacSystemFont, 'Segoe UI', Helvetica, Arial, sans-serif" font-size="10">Jul</text>
<text x="148.9" y="600" text-anchor="middle" fill="#8c959f" font-family="-apple-system, BlinkMacSystemFont, 'Segoe UI', Helvetica, Arial, sans-serif" font-size="10">Aug</text>
<text x="217.8" y="600" text-anchor="middle" fill="#8c959f" font-family="-apple-system, BlinkMacSystemFont, 'Segoe UI', Helvetica, Arial, sans-serif" font-size="10">Sep</text>
<text x="286.7" y="600" text-anchor="middle" fill="#8c959f" font-family="-apple-system, BlinkMacSystemFont, 'Segoe UI', Helvetica, Arial, sans-serif" font-size="10">Oct</text>
<text x="355.6" y="600" text-anchor="middle" fill="#8c959f" font-family="-apple-system, BlinkMacSystemFont, 'Segoe UI', Helvetica, Arial, sans-serif" font-size="10">Nov</text>
<text x="424.5" y="600" text-anchor="middle" fill="#8c959f" font-family="-apple-system, BlinkMacSystemFont, 'Segoe UI', Helvetica, Arial, sans-serif" font-size="10">Dec</text>
<text x="493.5" y="600" text-anchor="middle" fill="#8c959f" font-family="-apple-system, BlinkMacSystemFont, 'Segoe UI', Helvetica, Arial, sans-serif" font-size="10">Jan</text>
<text x="562.4" y="600" text-anchor="middle" fill="#8c959f" font-family="-apple-system, BlinkMacSystemFont, 'Segoe UI', Helvetica, Arial, sans-serif" font-size="10">Feb</text>
<text x="631.3" y="600" text-anchor="middle" fill="#8c959f" font-family="-apple-system, BlinkMacSystemFont, 'Segoe UI', Helvetica, Arial, sans-serif" font-size="10">Mar</text>
<text x="700.2" y="600" text-anchor="middle" fill="#8c959f" font-family="-apple-system, BlinkMacSystemFont, 'Segoe UI', Helvetica, Arial, sans-serif" font-size="10">Apr</text>
<text x="769.1" y="600" text-anchor="middle" fill="#8c959f" font-family="-apple-system, BlinkMacSystemFont, 'Segoe UI', Helvetica, Arial, sans-serif" font-size="10">May</text>
<text x="838.0" y="600" text-anchor="middle" fill="#8c959f" font-family="-apple-system, BlinkMacSystemFont, 'Segoe UI', Helvetica, Arial, sans-serif" font-size="10">Jun</text>
</g>


<g>
  <text x="52" y="642" fill="#24292f" font-family="-apple-system, BlinkMacSystemFont, 'Segoe UI', Helvetica, Arial, sans-serif" font-size="13" font-weight="600">
    Last 49 days
  </text>
  <rect x="52" y="660" width="7" height="28" rx="3.5" fill="#9be9a8"><title>2026-04-14: 1</title></rect><rect x="62" y="660" width="7" height="28" rx="3.5" fill="#9be9a8"><title>2026-04-15: 1</title></rect><rect x="72" y="660" width="7" height="28" rx="3.5" fill="#9be9a8"><title>2026-04-16: 2</title></rect><rect x="82" y="660" width="7" height="28" rx="3.5" fill="#9be9a8"><title>2026-04-17: 5</title></rect><rect x="92" y="660" width="7" height="28" rx="3.5" fill="#40c463"><title>2026-04-18: 9</title></rect><rect x="102" y="660" width="7" height="28" rx="3.5" fill="#9be9a8"><title>2026-04-19: 8</title></rect><rect x="112" y="660" width="7" height="28" rx="3.5" fill="#ebedf0"><title>2026-04-20: 0</title></rect><rect x="122" y="660" width="7" height="28" rx="3.5" fill="#9be9a8"><title>2026-04-21: 1</title></rect><rect x="132" y="660" width="7" height="28" rx="3.5" fill="#9be9a8"><title>2026-04-22: 2</title></rect><rect x="142" y="660" width="7" height="28" rx="3.5" fill="#ebedf0"><title>2026-04-23: 0</title></rect><rect x="152" y="660" width="7" height="28" rx="3.5" fill="#ebedf0"><title>2026-04-24: 0</title></rect><rect x="162" y="660" width="7" height="28" rx="3.5" fill="#ebedf0"><title>2026-04-25: 0</title></rect><rect x="172" y="660" width="7" height="28" rx="3.5" fill="#9be9a8"><title>2026-04-26: 1</title></rect><rect x="182" y="660" width="7" height="28" rx="3.5" fill="#30a14e"><title>2026-04-27: 17</title></rect><rect x="192" y="660" width="7" height="28" rx="3.5" fill="#9be9a8"><title>2026-04-28: 3</title></rect><rect x="202" y="660" width="7" height="28" rx="3.5" fill="#9be9a8"><title>2026-04-29: 1</title></rect><rect x="212" y="660" width="7" height="28" rx="3.5" fill="#9be9a8"><title>2026-04-30: 5</title></rect><rect x="222" y="660" width="7" height="28" rx="3.5" fill="#ebedf0"><title>2026-05-01: 0</title></rect><rect x="232" y="660" width="7" height="28" rx="3.5" fill="#9be9a8"><title>2026-05-02: 2</title></rect><rect x="242" y="660" width="7" height="28" rx="3.5" fill="#9be9a8"><title>2026-05-03: 6</title></rect><rect x="252" y="660" width="7" height="28" rx="3.5" fill="#9be9a8"><title>2026-05-04: 7</title></rect><rect x="262" y="660" width="7" height="28" rx="3.5" fill="#216e39"><title>2026-05-05: 34</title></rect><rect x="272" y="660" width="7" height="28" rx="3.5" fill="#9be9a8"><title>2026-05-06: 3</title></rect><rect x="282" y="660" width="7" height="28" rx="3.5" fill="#9be9a8"><title>2026-05-07: 6</title></rect><rect x="292" y="660" width="7" height="28" rx="3.5" fill="#30a14e"><title>2026-05-08: 23</title></rect><rect x="302" y="660" width="7" height="28" rx="3.5" fill="#40c463"><title>2026-05-09: 9</title></rect><rect x="312" y="660" width="7" height="28" rx="3.5" fill="#9be9a8"><title>2026-05-10: 6</title></rect><rect x="322" y="660" width="7" height="28" rx="3.5" fill="#9be9a8"><title>2026-05-11: 7</title></rect><rect x="332" y="660" width="7" height="28" rx="3.5" fill="#9be9a8"><title>2026-05-12: 4</title></rect><rect x="342" y="660" width="7" height="28" rx="3.5" fill="#9be9a8"><title>2026-05-13: 1</title></rect><rect x="352" y="660" width="7" height="28" rx="3.5" fill="#40c463"><title>2026-05-14: 15</title></rect><rect x="362" y="660" width="7" height="28" rx="3.5" fill="#40c463"><title>2026-05-15: 9</title></rect><rect x="372" y="660" width="7" height="28" rx="3.5" fill="#ebedf0"><title>2026-05-16: 0</title></rect><rect x="382" y="660" width="7" height="28" rx="3.5" fill="#ebedf0"><title>2026-05-17: 0</title></rect><rect x="392" y="660" width="7" height="28" rx="3.5" fill="#ebedf0"><title>2026-05-18: 0</title></rect><rect x="402" y="660" width="7" height="28" rx="3.5" fill="#9be9a8"><title>2026-05-19: 1</title></rect><rect x="412" y="660" width="7" height="28" rx="3.5" fill="#ebedf0"><title>2026-05-20: 0</title></rect><rect x="422" y="660" width="7" height="28" rx="3.5" fill="#ebedf0"><title>2026-05-21: 0</title></rect><rect x="432" y="660" width="7" height="28" rx="3.5" fill="#ebedf0"><title>2026-05-22: 0</title></rect><rect x="442" y="660" width="7" height="28" rx="3.5" fill="#9be9a8"><title>2026-05-23: 6</title></rect><rect x="452" y="660" width="7" height="28" rx="3.5" fill="#ebedf0"><title>2026-05-24: 0</title></rect><rect x="462" y="660" width="7" height="28" rx="3.5" fill="#9be9a8"><title>2026-05-25: 3</title></rect><rect x="472" y="660" width="7" height="28" rx="3.5" fill="#9be9a8"><title>2026-05-26: 4</title></rect><rect x="482" y="660" width="7" height="28" rx="3.5" fill="#40c463"><title>2026-05-27: 13</title></rect><rect x="492" y="660" width="7" height="28" rx="3.5" fill="#9be9a8"><title>2026-05-28: 4</title></rect><rect x="502" y="660" width="7" height="28" rx="3.5" fill="#ebedf0"><title>2026-05-29: 0</title></rect><rect x="512" y="660" width="7" height="28" rx="3.5" fill="#ebedf0"><title>2026-05-30: 0</title></rect><rect x="522" y="660" width="7" height="28" rx="3.5" fill="#ebedf0"><title>2026-05-31: 0</title></rect><rect x="532" y="660" width="7" height="28" rx="3.5" fill="#ebedf0"><title>2026-06-01: 0</title></rect>
</g>

</svg>
